<svg width="42" height="34" viewBox="0 0 42 34" fill="none" xmlns="http://www.w3.org/2000/svg">
<path d="M6.80682 28.3636H5.20455C5.19318 28.2311 5.16288 28.1108 5.11364 28.0028C5.06629 27.8949 5 27.8021 4.91477 27.7244C4.83144 27.6449 4.73011 27.5843 4.6108 27.5426C4.49148 27.4991 4.35606 27.4773 4.20455 27.4773C3.93939 27.4773 3.71496 27.5417 3.53125 27.6705C3.34943 27.7992 3.21117 27.9839 3.11648 28.2244C3.02367 28.465 2.97727 28.7538 2.97727 29.0909C2.97727 29.447 3.02462 29.7453 3.11932 29.9858C3.21591 30.2244 3.35511 30.4044 3.53693 30.5256C3.71875 30.6449 3.9375 30.7045 4.19318 30.7045C4.33902 30.7045 4.4697 30.6866 4.58523 30.6506C4.70076 30.6127 4.80114 30.5587 4.88636 30.4886C4.97159 30.4186 5.04072 30.3343 5.09375 30.2358C5.14867 30.1354 5.18561 30.0227 5.20455 29.8977L6.80682 29.9091C6.78788 30.1553 6.71875 30.4062 6.59943 30.6619C6.48011 30.9157 6.31061 31.1506 6.09091 31.3665C5.87311 31.5805 5.60322 31.7528 5.28125 31.8835C4.95928 32.0142 4.58523 32.0795 4.15909 32.0795C3.625 32.0795 3.14583 31.965 2.72159 31.7358C2.29924 31.5066 1.96496 31.1695 1.71875 30.7244C1.47443 30.2794 1.35227 29.7348 1.35227 29.0909C1.35227 28.4432 1.47727 27.8977 1.72727 27.4545C1.97727 27.0095 2.31439 26.6733 2.73864 26.446C3.16288 26.2169 3.63636 26.1023 4.15909 26.1023C4.52652 26.1023 4.86458 26.1525 5.1733 26.2528C5.48201 26.3532 5.75284 26.5 5.9858 26.6932C6.21875 26.8845 6.40625 27.1203 6.5483 27.4006C6.69034 27.6809 6.77652 28.0019 6.80682 28.3636ZM9.64844 32.0795C9.17495 32.0795 8.76965 31.9858 8.43253 31.7983C8.09541 31.6089 7.83688 31.3456 7.65696 31.0085C7.47704 30.6695 7.38707 30.2765 7.38707 29.8295C7.38707 29.3826 7.47704 28.9905 7.65696 28.6534C7.83688 28.3144 8.09541 28.0511 8.43253 27.8636C8.76965 27.6742 9.17495 27.5795 9.64844 27.5795C10.1219 27.5795 10.5272 27.6742 10.8643 27.8636C11.2015 28.0511 11.46 28.3144 11.6399 28.6534C11.8198 28.9905 11.9098 29.3826 11.9098 29.8295C11.9098 30.2765 11.8198 30.6695 11.6399 31.0085C11.46 31.3456 11.2015 31.6089 10.8643 31.7983C10.5272 31.9858 10.1219 32.0795 9.64844 32.0795ZM9.6598 30.9205C9.79238 30.9205 9.90696 30.8759 10.0036 30.7869C10.1001 30.6979 10.175 30.571 10.228 30.4062C10.281 30.2415 10.3075 30.0455 10.3075 29.8182C10.3075 29.589 10.281 29.393 10.228 29.2301C10.175 29.0653 10.1001 28.9384 10.0036 28.8494C9.90696 28.7604 9.79238 28.7159 9.6598 28.7159C9.51965 28.7159 9.39938 28.7604 9.29901 28.8494C9.19863 28.9384 9.12192 29.0653 9.06889 29.2301C9.01586 29.393 8.98935 29.589 8.98935 29.8182C8.98935 30.0455 9.01586 30.2415 9.06889 30.4062C9.12192 30.571 9.19863 30.6979 9.29901 30.7869C9.39938 30.8759 9.51965 30.9205 9.6598 30.9205ZM12.5462 32V27.6364H14.0348V28.4659H14.0803C14.1712 28.1932 14.3265 27.9773 14.5462 27.8182C14.7659 27.6591 15.0272 27.5795 15.3303 27.5795C15.6371 27.5795 15.9013 27.661 16.1229 27.8239C16.3445 27.9848 16.478 28.1989 16.5234 28.4659H16.5689C16.6428 28.1989 16.8 27.9848 17.0405 27.8239C17.281 27.661 17.5632 27.5795 17.8871 27.5795C18.3056 27.5795 18.6446 27.714 18.9041 27.983C19.1655 28.2519 19.2962 28.6098 19.2962 29.0568V32H17.728V29.4545C17.728 29.2633 17.6797 29.1136 17.5831 29.0057C17.4865 28.8958 17.3568 28.8409 17.1939 28.8409C17.0329 28.8409 16.9051 28.8958 16.8104 29.0057C16.7176 29.1136 16.6712 29.2633 16.6712 29.4545V32H15.1712V29.4545C15.1712 29.2633 15.1229 29.1136 15.0263 29.0057C14.9297 28.8958 14.8 28.8409 14.6371 28.8409C14.5291 28.8409 14.4363 28.8655 14.3587 28.9148C14.281 28.964 14.2204 29.035 14.1768 29.1278C14.1352 29.2187 14.1143 29.3277 14.1143 29.4545V32H12.5462ZM20.0696 33.6364V27.6364H21.6264V28.3977H21.6605C21.7173 28.25 21.8007 28.1146 21.9105 27.9915C22.0204 27.8665 22.1567 27.767 22.3196 27.6932C22.4825 27.6174 22.6719 27.5795 22.8878 27.5795C23.1757 27.5795 23.4493 27.6562 23.7088 27.8097C23.9702 27.9631 24.1823 28.2045 24.3452 28.5341C24.5099 28.8636 24.5923 29.2917 24.5923 29.8182C24.5923 30.322 24.5137 30.7396 24.3565 31.071C24.2012 31.4025 23.9929 31.6496 23.7315 31.8125C23.4721 31.9754 23.187 32.0568 22.8764 32.0568C22.6719 32.0568 22.4891 32.0237 22.3281 31.9574C22.169 31.8892 22.0327 31.7973 21.919 31.6818C21.8073 31.5644 21.7211 31.4318 21.6605 31.2841H21.6378V33.6364H20.0696ZM21.6037 29.8182C21.6037 30.0303 21.6312 30.214 21.6861 30.3693C21.7429 30.5227 21.8224 30.642 21.9247 30.7273C22.0289 30.8106 22.1529 30.8523 22.2969 30.8523C22.4408 30.8523 22.563 30.8116 22.6634 30.7301C22.7656 30.6468 22.8433 30.5284 22.8963 30.375C22.9512 30.2197 22.9787 30.0341 22.9787 29.8182C22.9787 29.6023 22.9512 29.4176 22.8963 29.2642C22.8433 29.1089 22.7656 28.9905 22.6634 28.9091C22.563 28.8258 22.4408 28.7841 22.2969 28.7841C22.1529 28.7841 22.0289 28.8258 21.9247 28.9091C21.8224 28.9905 21.7429 29.1089 21.6861 29.2642C21.6312 29.4176 21.6037 29.6023 21.6037 29.8182ZM25.2493 32V27.6364H26.772V28.4659H26.8175C26.897 28.1591 27.023 27.9347 27.1953 27.7926C27.3696 27.6506 27.5732 27.5795 27.8061 27.5795C27.8743 27.5795 27.9415 27.5852 28.0078 27.5966C28.076 27.6061 28.1413 27.6203 28.2038 27.6392V28.9773C28.1262 28.9508 28.0305 28.9309 27.9169 28.9176C27.8033 28.9044 27.7057 28.8977 27.6243 28.8977C27.4709 28.8977 27.3326 28.9328 27.2095 29.0028C27.0883 29.071 26.9927 29.1676 26.9226 29.2926C26.8525 29.4157 26.8175 29.5606 26.8175 29.7273V32H25.2493ZM29.7308 32.0682C29.4524 32.0682 29.2062 32.0227 28.9922 31.9318C28.7801 31.839 28.6134 31.6989 28.4922 31.5114C28.371 31.3239 28.3104 31.0852 28.3104 30.7955C28.3104 30.5568 28.3511 30.3532 28.4325 30.1847C28.514 30.0142 28.6276 29.875 28.7734 29.767C28.9193 29.6591 29.0888 29.5767 29.282 29.5199C29.477 29.4631 29.6873 29.4261 29.9126 29.4091C30.157 29.3902 30.353 29.3674 30.5007 29.3409C30.6503 29.3125 30.7583 29.2737 30.8246 29.2244C30.8909 29.1733 30.924 29.1061 30.924 29.0227V29.0114C30.924 28.8977 30.8804 28.8106 30.7933 28.75C30.7062 28.6894 30.5945 28.6591 30.4581 28.6591C30.3085 28.6591 30.1863 28.6922 30.0916 28.7585C29.9988 28.8229 29.9429 28.9223 29.924 29.0568H28.4808C28.4998 28.7917 28.584 28.5473 28.7337 28.3239C28.8852 28.0985 29.1058 27.9186 29.3956 27.7841C29.6854 27.6477 30.0471 27.5795 30.4808 27.5795C30.7933 27.5795 31.0736 27.6165 31.3217 27.6903C31.5698 27.7623 31.781 27.8636 31.9553 27.9943C32.1295 28.1231 32.2621 28.2746 32.353 28.4489C32.4458 28.6212 32.4922 28.8087 32.4922 29.0114V32H31.0263V31.3864H30.9922C30.9051 31.5492 30.799 31.6809 30.674 31.7812C30.5509 31.8816 30.4098 31.9545 30.2507 32C30.0935 32.0455 29.9202 32.0682 29.7308 32.0682ZM30.2422 31.0795C30.3615 31.0795 30.4732 31.0549 30.5774 31.0057C30.6835 30.9564 30.7696 30.8854 30.8359 30.7926C30.9022 30.6998 30.9354 30.5871 30.9354 30.4545V30.0909C30.8937 30.108 30.8492 30.1241 30.8018 30.1392C30.7564 30.1544 30.7071 30.1686 30.6541 30.1818C30.603 30.1951 30.5481 30.2074 30.4893 30.2188C30.4325 30.2301 30.3729 30.2405 30.3104 30.25C30.1892 30.2689 30.0897 30.3002 30.0121 30.3438C29.9363 30.3854 29.8795 30.4375 29.8416 30.5C29.8056 30.5606 29.7876 30.6288 29.7876 30.7045C29.7876 30.8258 29.8303 30.9186 29.9155 30.983C30.0007 31.0473 30.1096 31.0795 30.2422 31.0795Z" fill="white"/>
<path d="M1 6.5H23L21.7778 23H2.22222L1 6.5Z" stroke="white" stroke-width="2" stroke-linejoin="round"/>
<path d="M7.11108 8.94444V1H16.8889V8.94444" stroke="white" stroke-width="2" stroke-linecap="round" stroke-linejoin="round"/>
<path d="M7.11108 18.1112H16.8889" stroke="white" stroke-width="2" stroke-linecap="round"/>
</svg>
