<svg width="41" height="35" viewBox="0 0 41 35" fill="none" xmlns="http://www.w3.org/2000/svg">
<path d="M8.66663 9.53335C8.66663 8.38407 9.12317 7.28187 9.93583 6.46922C10.7485 5.65656 11.8507 5.20001 13 5.20001C14.1492 5.20001 15.2514 5.65656 16.0641 6.46922C16.8767 7.28187 17.3333 8.38407 17.3333 9.53335C17.3333 10.6826 16.8767 11.7848 16.0641 12.5975C15.2514 13.4101 14.1492 13.8667 13 13.8667C11.8507 13.8667 10.7485 13.4101 9.93583 12.5975C9.12317 11.7848 8.66663 10.6826 8.66663 9.53335Z" fill="white"/>
<path fill-rule="evenodd" clip-rule="evenodd" d="M13 0C9.55219 0 6.24558 1.36964 3.80761 3.80761C1.36964 6.24558 0 9.55219 0 13C0 16.4478 1.36964 19.7544 3.80761 22.1924C6.24558 24.6304 9.55219 26 13 26C16.4478 26 19.7544 24.6304 22.1924 22.1924C24.6304 19.7544 26 16.4478 26 13C26 9.55219 24.6304 6.24558 22.1924 3.80761C19.7544 1.36964 16.4478 0 13 0V0ZM1.73333 13C1.73336 11.1361 2.19582 9.30133 3.07925 7.66009C3.96269 6.01885 5.23951 4.62243 6.79529 3.59595C8.35108 2.56948 10.1372 1.94502 11.9937 1.77854C13.8501 1.61206 15.7189 1.90875 17.4325 2.64204C19.1461 3.37532 20.651 4.52229 21.8123 5.98015C22.9737 7.43802 23.7552 9.16123 24.0869 10.9954C24.4185 12.8295 24.29 14.7173 23.7127 16.4896C23.1354 18.2618 22.1275 19.8632 20.7792 21.1501C20.6498 19.6359 19.9568 18.2253 18.8372 17.1976C17.7176 16.1698 16.2531 15.5997 14.7333 15.6H11.2667C9.74689 15.5997 8.28235 16.1698 7.16279 17.1976C6.04323 18.2253 5.3502 19.6359 5.2208 21.1501C4.11713 20.0992 3.23881 18.8347 2.63927 17.4336C2.03973 16.0324 1.7315 14.524 1.73333 13Z" fill="white"/>
<path d="M0.375 28.1818H2.34091L3.69318 31.4773H3.76136L5.11364 28.1818H7.07955V34H5.53409V30.6364H5.48864L4.19318 33.9545H3.26136L1.96591 30.6136H1.92045V34H0.375V28.1818ZM7.85085 34V29.6364H9.41903V34H7.85085ZM8.63494 29.1818C8.42282 29.1818 8.241 29.1117 8.08949 28.9716C7.93797 28.8314 7.86222 28.6629 7.86222 28.4659C7.86222 28.2689 7.93797 28.1004 8.08949 27.9602C8.241 27.8201 8.42282 27.75 8.63494 27.75C8.84896 27.75 9.03078 27.8201 9.1804 27.9602C9.33191 28.1004 9.40767 28.2689 9.40767 28.4659C9.40767 28.6629 9.33191 28.8314 9.1804 28.9716C9.03078 29.1117 8.84896 29.1818 8.63494 29.1818ZM13.9141 34.0795C13.4406 34.0795 13.0353 33.9858 12.6982 33.7983C12.361 33.6089 12.1025 33.3456 11.9226 33.0085C11.7427 32.6695 11.6527 32.2765 11.6527 31.8295C11.6527 31.3826 11.7427 30.9905 11.9226 30.6534C12.1025 30.3144 12.361 30.0511 12.6982 29.8636C13.0353 29.6742 13.4406 29.5795 13.9141 29.5795C14.3421 29.5795 14.7124 29.6572 15.0249 29.8125C15.3393 29.9659 15.5826 30.1837 15.755 30.4659C15.9273 30.7462 16.0144 31.0758 16.0163 31.4545H14.5618C14.541 31.2254 14.4747 31.0511 14.3629 30.9318C14.2531 30.8106 14.111 30.75 13.9368 30.75C13.8004 30.75 13.6811 30.7898 13.5788 30.8693C13.4766 30.947 13.397 31.0653 13.3402 31.2244C13.2834 31.3816 13.255 31.5795 13.255 31.8182C13.255 32.0568 13.2834 32.2557 13.3402 32.4148C13.397 32.572 13.4766 32.6903 13.5788 32.7699C13.6811 32.8475 13.8004 32.8864 13.9368 32.8864C14.0523 32.8864 14.1546 32.8598 14.2436 32.8068C14.3326 32.7519 14.4046 32.6723 14.4595 32.5682C14.5163 32.4621 14.5504 32.3333 14.5618 32.1818H16.0163C16.0107 32.5663 15.9226 32.9015 15.7521 33.1875C15.5817 33.4716 15.3402 33.6913 15.0277 33.8466C14.7171 34.0019 14.3459 34.0795 13.9141 34.0795ZM19.4929 32.0909V29.6364H21.0611V34H19.5724V33.1705H19.527C19.4323 33.4489 19.2666 33.6667 19.0298 33.8239C18.7931 33.9792 18.5118 34.0568 18.1861 34.0568C17.8812 34.0568 17.6141 33.9867 17.3849 33.8466C17.1577 33.7064 16.9806 33.5133 16.8537 33.267C16.7287 33.0208 16.6652 32.7386 16.6634 32.4205V29.6364H18.2315V32.0909C18.2334 32.3068 18.2884 32.4763 18.3963 32.5994C18.5062 32.7225 18.6596 32.7841 18.8565 32.7841C18.9872 32.7841 19.0999 32.7566 19.1946 32.7017C19.2912 32.6449 19.3651 32.5653 19.4162 32.4631C19.4692 32.3589 19.4948 32.2348 19.4929 32.0909ZM23.9496 34.0795C23.4837 34.0795 23.0821 33.9905 22.745 33.8125C22.4098 33.6326 22.1513 33.375 21.9695 33.0398C21.7895 32.7027 21.6996 32.2992 21.6996 31.8295C21.6996 31.3788 21.7905 30.9848 21.9723 30.6477C22.1541 30.3106 22.4107 30.0483 22.7422 29.8608C23.0736 29.6733 23.4647 29.5795 23.9155 29.5795C24.245 29.5795 24.5433 29.6307 24.8104 29.733C25.0774 29.8352 25.3056 29.9839 25.495 30.179C25.6844 30.3722 25.8303 30.607 25.9325 30.8835C26.0348 31.16 26.0859 31.4716 26.0859 31.8182V32.1818H22.1882V31.3182H24.6428C24.6409 31.1932 24.6087 31.0833 24.5462 30.9886C24.4856 30.892 24.4032 30.8172 24.299 30.7642C24.1967 30.7093 24.0803 30.6818 23.9496 30.6818C23.8227 30.6818 23.7062 30.7093 23.6001 30.7642C23.4941 30.8172 23.4089 30.8911 23.3445 30.9858C23.282 31.0805 23.2488 31.1913 23.245 31.3182V32.25C23.245 32.3902 23.2744 32.5152 23.3331 32.625C23.3918 32.7348 23.4761 32.821 23.5859 32.8835C23.6958 32.946 23.8284 32.9773 23.9837 32.9773C24.0916 32.9773 24.1901 32.9621 24.2791 32.9318C24.37 32.9015 24.4477 32.858 24.5121 32.8011C24.5765 32.7424 24.6238 32.6723 24.6541 32.5909H26.0859C26.0367 32.8939 25.9202 33.1572 25.7365 33.3807C25.5528 33.6023 25.3094 33.7746 25.0064 33.8977C24.7053 34.0189 24.353 34.0795 23.9496 34.0795ZM28.294 31.5455V34H26.7259V29.6364H28.2145V30.4659H28.2599C28.3546 30.1894 28.5213 29.9725 28.7599 29.8153C29.0005 29.6581 29.2808 29.5795 29.6009 29.5795C29.9096 29.5795 30.1776 29.6506 30.4048 29.7926C30.634 29.9328 30.8111 30.1259 30.9361 30.3722C31.063 30.6184 31.1255 30.8996 31.1236 31.2159V34H29.5554V31.5455C29.5573 31.3295 29.5024 31.16 29.3906 31.0369C29.2808 30.9138 29.1274 30.8523 28.9304 30.8523C28.8016 30.8523 28.6889 30.8807 28.5923 30.9375C28.4976 30.9924 28.4247 31.072 28.3736 31.1761C28.3224 31.2784 28.2959 31.4015 28.294 31.5455ZM34.5 29.6364V30.7727H31.625V29.6364H34.5ZM32.1818 28.5909H33.75V32.5966C33.75 32.6572 33.7604 32.7083 33.7812 32.75C33.8021 32.7898 33.8343 32.8201 33.8778 32.8409C33.9214 32.8598 33.9773 32.8693 34.0455 32.8693C34.0928 32.8693 34.1477 32.8636 34.2102 32.8523C34.2746 32.8409 34.322 32.8314 34.3523 32.8239L34.5795 33.9261C34.5095 33.947 34.4091 33.9725 34.2784 34.0028C34.1496 34.0331 33.9962 34.053 33.8182 34.0625C33.4583 34.0814 33.1563 34.0445 32.9119 33.9517C32.6676 33.857 32.4839 33.7083 32.3608 33.5057C32.2377 33.303 32.178 33.0492 32.1818 32.7443V28.5909ZM36.3558 34.0682C36.0774 34.0682 35.8312 34.0227 35.6172 33.9318C35.4051 33.839 35.2384 33.6989 35.1172 33.5114C34.996 33.3239 34.9354 33.0852 34.9354 32.7955C34.9354 32.5568 34.9761 32.3532 35.0575 32.1847C35.139 32.0142 35.2526 31.875 35.3984 31.767C35.5443 31.6591 35.7138 31.5767 35.907 31.5199C36.102 31.4631 36.3123 31.4261 36.5376 31.4091C36.782 31.3902 36.978 31.3674 37.1257 31.3409C37.2753 31.3125 37.3833 31.2737 37.4496 31.2244C37.5159 31.1733 37.549 31.1061 37.549 31.0227V31.0114C37.549 30.8977 37.5054 30.8106 37.4183 30.75C37.3312 30.6894 37.2195 30.6591 37.0831 30.6591C36.9335 30.6591 36.8113 30.6922 36.7166 30.7585C36.6238 30.8229 36.5679 30.9223 36.549 31.0568H35.1058C35.1248 30.7917 35.209 30.5473 35.3587 30.3239C35.5102 30.0985 35.7308 29.9186 36.0206 29.7841C36.3104 29.6477 36.6721 29.5795 37.1058 29.5795C37.4183 29.5795 37.6986 29.6165 37.9467 29.6903C38.1948 29.7623 38.406 29.8636 38.5803 29.9943C38.7545 30.1231 38.8871 30.2746 38.978 30.4489C39.0708 30.6212 39.1172 30.8087 39.1172 31.0114V34H37.6513V33.3864H37.6172C37.5301 33.5492 37.424 33.6809 37.299 33.7812C37.1759 33.8816 37.0348 33.9545 36.8757 34C36.7185 34.0455 36.5452 34.0682 36.3558 34.0682ZM36.8672 33.0795C36.9865 33.0795 37.0982 33.0549 37.2024 33.0057C37.3085 32.9564 37.3946 32.8854 37.4609 32.7926C37.5272 32.6998 37.5604 32.5871 37.5604 32.4545V32.0909C37.5187 32.108 37.4742 32.1241 37.4268 32.1392C37.3814 32.1544 37.3321 32.1686 37.2791 32.1818C37.228 32.1951 37.1731 32.2074 37.1143 32.2188C37.0575 32.2301 36.9979 32.2405 36.9354 32.25C36.8142 32.2689 36.7147 32.3002 36.6371 32.3438C36.5613 32.3854 36.5045 32.4375 36.4666 32.5C36.4306 32.5606 36.4126 32.6288 36.4126 32.7045C36.4126 32.8258 36.4553 32.9186 36.5405 32.983C36.6257 33.0473 36.7346 33.0795 36.8672 33.0795Z" fill="white"/>
</svg>
