<svg width="50" height="50" viewBox="0 0 50 50" fill="none" xmlns="http://www.w3.org/2000/svg">
<path d="M33 25C33 26.5823 32.5308 28.129 31.6518 29.4446C30.7727 30.7602 29.5233 31.7855 28.0615 32.391C26.5997 32.9965 24.9911 33.155 23.4393 32.8463C21.8874 32.5376 20.462 31.7757 19.3431 30.6569C18.2243 29.538 17.4624 28.1126 17.1537 26.5607C16.845 25.0089 17.0035 23.4003 17.609 21.9385C18.2145 20.4767 19.2398 19.2273 20.5554 18.3482C21.871 17.4692 23.4177 17 25 17C27.1197 17.0066 29.1507 17.8516 30.6496 19.3504C32.1484 20.8493 32.9934 22.8803 33 25ZM50 14V36C50 39.713 48.525 43.274 45.8995 45.8995C43.274 48.525 39.713 50 36 50H14C10.287 50 6.72601 48.525 4.1005 45.8995C1.475 43.274 0 39.713 0 36V14C0 10.287 1.475 6.72601 4.1005 4.1005C6.72601 1.475 10.287 0 14 0H36C39.713 0 43.274 1.475 45.8995 4.1005C48.525 6.72601 50 10.287 50 14ZM37 25C37 22.6266 36.2962 20.3065 34.9776 18.3332C33.6591 16.3598 31.7849 14.8217 29.5922 13.9134C27.3995 13.0052 24.9867 12.7676 22.6589 13.2306C20.3311 13.6936 18.1929 14.8365 16.5147 16.5147C14.8365 18.1929 13.6936 20.3311 13.2306 22.6589C12.7676 24.9867 13.0052 27.3995 13.9134 29.5922C14.8217 31.7849 16.3598 33.6591 18.3332 34.9776C20.3065 36.2962 22.6266 37 25 37C28.1826 37 31.2348 35.7357 33.4853 33.4853C35.7357 31.2348 37 28.1826 37 25ZM41 12C41 11.4067 40.8241 10.8266 40.4944 10.3333C40.1648 9.83994 39.6962 9.45542 39.148 9.22836C38.5999 9.0013 37.9967 8.94189 37.4147 9.05764C36.8328 9.1734 36.2982 9.45912 35.8787 9.87868C35.4591 10.2982 35.1734 10.8328 35.0576 11.4147C34.9419 11.9967 35.0013 12.5999 35.2284 13.1481C35.4554 13.6962 35.8399 14.1648 36.3333 14.4944C36.8266 14.8241 37.4067 15 38 15C38.7956 15 39.5587 14.6839 40.1213 14.1213C40.6839 13.5587 41 12.7956 41 12Z" fill="white"/>
</svg>
