<svg width="136" height="37" viewBox="0 0 136 37" fill="none" xmlns="http://www.w3.org/2000/svg">
<rect width="136" height="37" rx="10" fill="#1D221D"/>
<path d="M40.9375 26V11.4545H47.2443C48.3523 11.4545 49.2827 11.6037 50.0355 11.902C50.7931 12.2003 51.3636 12.6217 51.7472 13.1662C52.1354 13.7107 52.3295 14.3523 52.3295 15.0909C52.3295 15.6259 52.2112 16.1136 51.9744 16.554C51.7424 16.9943 51.4157 17.3636 50.9943 17.6619C50.5729 17.9555 50.0805 18.1591 49.517 18.2727V18.4148C50.142 18.4384 50.7102 18.5971 51.2216 18.8906C51.733 19.1795 52.1402 19.5795 52.4432 20.0909C52.7462 20.5975 52.8977 21.1941 52.8977 21.8807C52.8977 22.6761 52.6894 23.384 52.2727 24.0043C51.8608 24.6245 51.2737 25.1122 50.5114 25.4673C49.7491 25.8224 48.84 26 47.7841 26H40.9375ZM44.8864 22.8466H46.733C47.3958 22.8466 47.893 22.7235 48.2244 22.4773C48.5559 22.2263 48.7216 21.857 48.7216 21.3693C48.7216 21.0284 48.6435 20.7396 48.4872 20.5028C48.331 20.2661 48.1084 20.0862 47.8196 19.9631C47.5355 19.84 47.1922 19.7784 46.7898 19.7784H44.8864V22.8466ZM44.8864 17.3352H46.5057C46.8513 17.3352 47.1567 17.2808 47.4219 17.1719C47.687 17.063 47.893 16.9067 48.0398 16.7031C48.1913 16.4948 48.267 16.2415 48.267 15.9432C48.267 15.4934 48.1061 15.1501 47.7841 14.9134C47.4621 14.6719 47.0549 14.5511 46.5625 14.5511H44.8864V17.3352ZM58.0753 26H53.8139L58.6151 11.4545H64.0128L68.8139 26H64.5526L61.3707 15.4602H61.2571L58.0753 26ZM57.2798 20.2614H65.2912V23.2159H57.2798V20.2614ZM83.1108 16.9091H79.1051C79.0767 16.5777 79.0009 16.277 78.8778 16.0071C78.7595 15.7372 78.5938 15.5052 78.3807 15.3111C78.1723 15.1122 77.919 14.9607 77.6207 14.8565C77.3224 14.7476 76.9839 14.6932 76.6051 14.6932C75.9422 14.6932 75.3812 14.8542 74.9219 15.1761C74.4673 15.4981 74.1217 15.9598 73.8849 16.5611C73.6529 17.1624 73.5369 17.8845 73.5369 18.7273C73.5369 19.6174 73.6553 20.3632 73.892 20.9645C74.1335 21.5611 74.4815 22.0109 74.9361 22.3139C75.3906 22.6122 75.9375 22.7614 76.5767 22.7614C76.9413 22.7614 77.268 22.7164 77.5568 22.6264C77.8456 22.5317 78.0966 22.3968 78.3097 22.2216C78.5227 22.0464 78.6955 21.8357 78.8281 21.5895C78.9654 21.3385 79.0578 21.0568 79.1051 20.7443L83.1108 20.7727C83.0634 21.3883 82.8906 22.0156 82.5923 22.6548C82.294 23.2893 81.8703 23.8764 81.321 24.4162C80.7765 24.9512 80.1018 25.3821 79.2969 25.7088C78.492 26.0355 77.5568 26.1989 76.4915 26.1989C75.1562 26.1989 73.9583 25.9124 72.8977 25.3395C71.8419 24.7666 71.0062 23.9238 70.3906 22.8111C69.7798 21.6984 69.4744 20.3371 69.4744 18.7273C69.4744 17.108 69.7869 15.7443 70.4119 14.6364C71.0369 13.5237 71.8797 12.6832 72.9403 12.1151C74.0009 11.5421 75.1847 11.2557 76.4915 11.2557C77.41 11.2557 78.2552 11.3812 79.027 11.6321C79.7988 11.883 80.4759 12.25 81.0582 12.733C81.6406 13.2112 82.1094 13.8007 82.4645 14.5014C82.8196 15.2022 83.035 16.0047 83.1108 16.9091ZM84.9023 26V11.4545H88.8512V17.3352H89.0501L93.4251 11.4545H98.0273L93.1126 17.9318L98.141 26H93.4251L90.158 20.5455L88.8512 22.25V26H84.9023Z" fill="white"/>
</svg>
