<svg width="195" height="172" viewBox="0 0 195 172" fill="none" xmlns="http://www.w3.org/2000/svg">
<ellipse cx="87.5" cy="86" rx="87.5" ry="86" fill="#FCDFAC"/>
<path d="M14.52 82.4C14.52 79.8 14.96 77.26 15.84 74.78C16.76 72.26 18.08 69.98 19.8 67.94C21.52 65.86 23.64 64.22 26.16 63.02C28.68 61.78 31.54 61.16 34.74 61.16C38.54 61.16 41.78 62.04 44.46 63.8C47.18 65.52 49.18 67.74 50.46 70.46L47.16 72.5C46.24 70.62 45.08 69.14 43.68 68.06C42.28 66.94 40.78 66.14 39.18 65.66C37.62 65.18 36.06 64.94 34.5 64.94C31.94 64.94 29.68 65.46 27.72 66.5C25.76 67.5 24.1 68.86 22.74 70.58C21.42 72.26 20.42 74.16 19.74 76.28C19.06 78.36 18.72 80.48 18.72 82.64C18.72 85 19.12 87.26 19.92 89.42C20.72 91.58 21.84 93.5 23.28 95.18C24.72 96.82 26.4 98.14 28.32 99.14C30.28 100.1 32.4 100.58 34.68 100.58C36.28 100.58 37.92 100.3 39.6 99.74C41.28 99.18 42.84 98.32 44.28 97.16C45.76 96 46.94 94.5 47.82 92.66L51.3 94.46C50.42 96.58 49.06 98.38 47.22 99.86C45.38 101.34 43.32 102.46 41.04 103.22C38.8 103.98 36.6 104.36 34.44 104.36C31.52 104.36 28.84 103.74 26.4 102.5C23.96 101.22 21.84 99.54 20.04 97.46C18.28 95.34 16.92 92.98 15.96 90.38C15 87.74 14.52 85.08 14.52 82.4ZM83.3728 69.38C82.7728 68.7 82.0728 68.1 81.2728 67.58C80.4728 67.02 79.5728 66.54 78.5728 66.14C77.5728 65.74 76.4928 65.42 75.3328 65.18C74.2128 64.94 73.0128 64.82 71.7328 64.82C68.0128 64.82 65.2728 65.54 63.5128 66.98C61.7928 68.38 60.9328 70.3 60.9328 72.74C60.9328 74.42 61.3328 75.74 62.1328 76.7C62.9728 77.66 64.2728 78.44 66.0328 79.04C67.7928 79.64 70.0328 80.26 72.7528 80.9C75.7928 81.54 78.4128 82.3 80.6128 83.18C82.8128 84.06 84.5128 85.26 85.7128 86.78C86.9128 88.26 87.5128 90.28 87.5128 92.84C87.5128 94.8 87.1328 96.5 86.3728 97.94C85.6128 99.38 84.5528 100.58 83.1928 101.54C81.8328 102.5 80.2128 103.22 78.3328 103.7C76.4528 104.14 74.3928 104.36 72.1528 104.36C69.9528 104.36 67.8328 104.14 65.7928 103.7C63.7928 103.22 61.8928 102.54 60.0928 101.66C58.2928 100.74 56.6128 99.58 55.0528 98.18L57.1528 94.76C57.9128 95.56 58.8128 96.32 59.8528 97.04C60.9328 97.72 62.1128 98.34 63.3928 98.9C64.7128 99.46 66.1128 99.9 67.5928 100.22C69.1128 100.5 70.6728 100.64 72.2728 100.64C75.6728 100.64 78.3128 100.02 80.1928 98.78C82.1128 97.54 83.0728 95.7 83.0728 93.26C83.0728 91.5 82.5928 90.1 81.6328 89.06C80.6728 87.98 79.2328 87.1 77.3128 86.42C75.3928 85.74 73.0328 85.08 70.2328 84.44C67.2728 83.76 64.7728 83 62.7328 82.16C60.6928 81.32 59.1528 80.22 58.1128 78.86C57.1128 77.46 56.6128 75.62 56.6128 73.34C56.6128 70.7 57.2528 68.48 58.5328 66.68C59.8528 64.84 61.6528 63.46 63.9328 62.54C66.2128 61.58 68.8328 61.1 71.7928 61.1C73.6728 61.1 75.4128 61.3 77.0128 61.7C78.6528 62.06 80.1528 62.6 81.5128 63.32C82.9128 64.04 84.2128 64.94 85.4128 66.02L83.3728 69.38ZM119.818 69.38C119.218 68.7 118.518 68.1 117.718 67.58C116.918 67.02 116.018 66.54 115.018 66.14C114.018 65.74 112.938 65.42 111.778 65.18C110.658 64.94 109.458 64.82 108.178 64.82C104.458 64.82 101.718 65.54 99.9581 66.98C98.2381 68.38 97.3781 70.3 97.3781 72.74C97.3781 74.42 97.7781 75.74 98.5781 76.7C99.4181 77.66 100.718 78.44 102.478 79.04C104.238 79.64 106.478 80.26 109.198 80.9C112.238 81.54 114.858 82.3 117.058 83.18C119.258 84.06 120.958 85.26 122.158 86.78C123.358 88.26 123.958 90.28 123.958 92.84C123.958 94.8 123.578 96.5 122.818 97.94C122.058 99.38 120.998 100.58 119.638 101.54C118.278 102.5 116.658 103.22 114.778 103.7C112.898 104.14 110.838 104.36 108.598 104.36C106.398 104.36 104.278 104.14 102.238 103.7C100.238 103.22 98.3381 102.54 96.5381 101.66C94.7381 100.74 93.0581 99.58 91.4981 98.18L93.5981 94.76C94.3581 95.56 95.2581 96.32 96.2981 97.04C97.3781 97.72 98.5581 98.34 99.8381 98.9C101.158 99.46 102.558 99.9 104.038 100.22C105.558 100.5 107.118 100.64 108.718 100.64C112.118 100.64 114.758 100.02 116.638 98.78C118.558 97.54 119.518 95.7 119.518 93.26C119.518 91.5 119.038 90.1 118.078 89.06C117.118 87.98 115.678 87.1 113.758 86.42C111.838 85.74 109.478 85.08 106.678 84.44C103.718 83.76 101.218 83 99.1781 82.16C97.1381 81.32 95.5981 80.22 94.5581 78.86C93.5581 77.46 93.0581 75.62 93.0581 73.34C93.0581 70.7 93.6981 68.48 94.9781 66.68C96.2981 64.84 98.0981 63.46 100.378 62.54C102.658 61.58 105.278 61.1 108.238 61.1C110.118 61.1 111.858 61.3 113.458 61.7C115.098 62.06 116.598 62.6 117.958 63.32C119.358 64.04 120.658 64.94 121.858 66.02L119.818 69.38ZM146.603 89.84C148.403 90.12 149.943 90.76 151.223 91.76C152.503 92.76 153.503 94.02 154.223 95.54C154.943 97.06 155.303 98.78 155.303 100.7C155.303 103.1 154.723 105.22 153.563 107.06C152.403 108.9 150.783 110.32 148.703 111.32C146.623 112.32 144.203 112.82 141.443 112.82C138.403 112.82 135.743 112.2 133.463 110.96C131.183 109.76 129.463 108.08 128.303 105.92L131.123 103.34C132.003 105.06 133.303 106.44 135.023 107.48C136.743 108.56 138.883 109.1 141.443 109.1C144.403 109.1 146.743 108.36 148.463 106.88C150.223 105.44 151.103 103.36 151.103 100.64C151.103 97.92 150.183 95.76 148.343 94.16C146.543 92.52 143.963 91.7 140.603 91.7H139.103V88.22H140.723C143.803 88.22 146.163 87.5 147.803 86.06C149.443 84.62 150.263 82.78 150.263 80.54C150.263 78.9 149.883 77.54 149.123 76.46C148.363 75.38 147.323 74.56 146.003 74C144.723 73.44 143.243 73.16 141.563 73.16C139.283 73.16 137.263 73.68 135.503 74.72C133.783 75.72 132.483 77.12 131.603 78.92L128.963 76.4C129.643 75 130.623 73.78 131.903 72.74C133.183 71.7 134.683 70.9 136.403 70.34C138.123 69.74 139.963 69.44 141.923 69.44C144.403 69.44 146.583 69.9 148.463 70.82C150.343 71.7 151.823 72.94 152.903 74.54C153.983 76.14 154.523 78.02 154.523 80.18C154.523 81.78 154.203 83.26 153.563 84.62C152.923 85.98 152.003 87.12 150.803 88.04C149.643 88.96 148.243 89.56 146.603 89.84Z" fill="white"/>
</svg>
