<svg width="80" height="80" viewBox="0 0 80 80" fill="none" xmlns="http://www.w3.org/2000/svg">
<circle cx="40" cy="40" r="40" fill="#CEFCAE"/>
<path d="M40.0001 70.5882C56.8935 70.5882 70.5883 56.8934 70.5883 40C70.5883 23.1066 56.8935 9.41174 40.0001 9.41174C23.1067 9.41174 9.41187 23.1066 9.41187 40C9.41187 56.8934 23.1067 70.5882 40.0001 70.5882Z" fill="#1C1C20"/>
<path d="M55.2519 17.4391L51.7095 64.4193L13.7401 43.8129L55.2519 17.4391Z" fill="#92C131"/>
<path d="M55.2942 17.3649L54.9037 22.4425L54.5133 27.459L53.9274 35.2285L45.9225 34.3719L41.1714 32.3531L37.4619 28.3766L46.4431 23.0543L55.2942 17.3649Z" fill="#BAFFA9"/>
<path d="M49.155 26.9784L46.1613 54.9828L24.8514 43.4176L49.155 26.9784Z" fill="#1C1C20"/>
<path d="M38.5271 44.7042L37.9903 51.2776L32.7396 48.4279L38.5271 44.7042Z" fill="#92C131"/>
<path d="M54.7237 35.2591L48.22 34.6166L47.5628 40.4947L54.0665 41.1372L54.7237 35.2591Z" fill="#1C1C20"/>
<path d="M37.3299 28.0093L32.3204 31.9606L36.362 36.4882L41.3716 32.5369L37.3299 28.0093Z" fill="#1C1C20"/>
</svg>
