<svg width="171" height="32" viewBox="0 0 171 32" fill="none" xmlns="http://www.w3.org/2000/svg">
<path d="M0.921875 31V1.18182H13.8509C16.1222 1.18182 18.0295 1.48757 19.5728 2.09908C21.1258 2.71058 22.2955 3.57445 23.0817 4.69069C23.8776 5.80694 24.2756 7.12216 24.2756 8.63636C24.2756 9.73319 24.0329 10.733 23.5476 11.6357C23.072 12.5384 22.4022 13.2955 21.5384 13.907C20.6745 14.5088 19.665 14.9261 18.5099 15.1591V15.4503C19.7912 15.4988 20.956 15.824 22.0043 16.4258C23.0526 17.0179 23.8873 17.8381 24.5085 18.8864C25.1297 19.925 25.4403 21.148 25.4403 22.5554C25.4403 24.1861 25.0133 25.6372 24.1591 26.9087C23.3146 28.1803 22.111 29.18 20.5483 29.908C18.9856 30.636 17.1219 31 14.9574 31H0.921875ZM9.01705 24.5355H12.8026C14.1615 24.5355 15.1806 24.2831 15.8601 23.7784C16.5395 23.264 16.8793 22.5069 16.8793 21.5071C16.8793 20.8082 16.7191 20.2161 16.3988 19.7308C16.0785 19.2455 15.6223 18.8767 15.0302 18.6243C14.4478 18.3719 13.7441 18.2457 12.919 18.2457H9.01705V24.5355ZM9.01705 13.2372H12.3366C13.0452 13.2372 13.6713 13.1256 14.2148 12.9023C14.7584 12.6791 15.1806 12.3588 15.4815 11.9414C15.7921 11.5143 15.9474 10.995 15.9474 10.3835C15.9474 9.46141 15.6174 8.75769 14.9574 8.27237C14.2973 7.77734 13.4626 7.52983 12.4531 7.52983H9.01705V13.2372ZM36.0543 31H27.3185L37.1609 1.18182H48.2262L58.0685 31H49.3327L42.81 9.39347H42.5771L36.0543 31ZM34.4237 19.2358H50.8469V25.2926H34.4237V19.2358ZM60.9404 31V1.18182H69.0356V24.4773H81.091V31H60.9404ZM112.089 16.0909C112.089 19.4105 111.443 22.2108 110.152 24.4918C108.861 26.7631 107.119 28.486 104.925 29.6605C102.732 30.8253 100.285 31.4077 97.5871 31.4077C94.8693 31.4077 92.4136 30.8204 90.2199 29.646C88.036 28.4618 86.2985 26.734 85.0075 24.4627C83.7263 22.1817 83.0857 19.3911 83.0857 16.0909C83.0857 12.7713 83.7263 9.97585 85.0075 7.70455C86.2985 5.42353 88.036 3.70064 90.2199 2.53587C92.4136 1.36139 94.8693 0.774147 97.5871 0.774147C100.285 0.774147 102.732 1.36139 104.925 2.53587C107.119 3.70064 108.861 5.42353 110.152 7.70455C111.443 9.97585 112.089 12.7713 112.089 16.0909ZM103.76 16.0909C103.76 14.3049 103.523 12.8004 103.047 11.5774C102.581 10.3447 101.887 9.41288 100.965 8.78196C100.053 8.14133 98.9266 7.82102 97.5871 7.82102C96.2476 7.82102 95.1168 8.14133 94.1947 8.78196C93.2823 9.41288 92.5883 10.3447 92.1127 11.5774C91.6468 12.8004 91.4138 14.3049 91.4138 16.0909C91.4138 17.8769 91.6468 19.3862 92.1127 20.619C92.5883 21.842 93.2823 22.7738 94.1947 23.4144C95.1168 24.0453 96.2476 24.3608 97.5871 24.3608C98.9266 24.3608 100.053 24.0453 100.965 23.4144C101.887 22.7738 102.581 21.842 103.047 20.619C103.523 19.3862 103.76 17.8769 103.76 16.0909ZM113.617 7.70455V1.18182H139.533V7.70455H130.565V31H122.586V7.70455H113.617ZM170.065 16.0909C170.065 19.4105 169.42 22.2108 168.129 24.4918C166.838 26.7631 165.095 28.486 162.902 29.6605C160.708 30.8253 158.262 31.4077 155.564 31.4077C152.846 31.4077 150.39 30.8204 148.196 29.646C146.013 28.4618 144.275 26.734 142.984 24.4627C141.703 22.1817 141.062 19.3911 141.062 16.0909C141.062 12.7713 141.703 9.97585 142.984 7.70455C144.275 5.42353 146.013 3.70064 148.196 2.53587C150.39 1.36139 152.846 0.774147 155.564 0.774147C158.262 0.774147 160.708 1.36139 162.902 2.53587C165.095 3.70064 166.838 5.42353 168.129 7.70455C169.42 9.97585 170.065 12.7713 170.065 16.0909ZM161.737 16.0909C161.737 14.3049 161.499 12.8004 161.024 11.5774C160.558 10.3447 159.864 9.41288 158.941 8.78196C158.029 8.14133 156.903 7.82102 155.564 7.82102C154.224 7.82102 153.093 8.14133 152.171 8.78196C151.259 9.41288 150.565 10.3447 150.089 11.5774C149.623 12.8004 149.39 14.3049 149.39 16.0909C149.39 17.8769 149.623 19.3862 150.089 20.619C150.565 21.842 151.259 22.7738 152.171 23.4144C153.093 24.0453 154.224 24.3608 155.564 24.3608C156.903 24.3608 158.029 24.0453 158.941 23.4144C159.864 22.7738 160.558 21.842 161.024 20.619C161.499 19.3862 161.737 17.8769 161.737 16.0909Z" fill="white"/>
</svg>
