<svg width="30" height="30" viewBox="0 0 30 30" fill="none" xmlns="http://www.w3.org/2000/svg">
<path fill-rule="evenodd" clip-rule="evenodd" d="M15 30C11.0218 30 7.20644 28.4196 4.3934 25.6066C1.58035 22.7936 0 18.9782 0 15C0 11.0218 1.58035 7.20644 4.3934 4.3934C7.20644 1.58035 11.0218 0 15 0C18.9782 0 22.7936 1.58035 25.6066 4.3934C28.4196 7.20644 30 11.0218 30 15C30 18.9782 28.4196 22.7936 25.6066 25.6066C22.7936 28.4196 18.9782 30 15 30ZM13.6744 10.7006C13.3328 10.347 13.1438 9.87337 13.1481 9.38175C13.1524 8.89013 13.3496 8.41986 13.6972 8.07222C14.0449 7.72458 14.5151 7.52738 15.0067 7.52311C15.4984 7.51884 15.972 7.70783 16.3256 8.04938L21.9506 13.6744C22.3021 14.026 22.4996 14.5028 22.4996 15C22.4996 15.4972 22.3021 15.974 21.9506 16.3256L16.3256 21.9506C15.972 22.2922 15.4984 22.4812 15.0067 22.4769C14.5151 22.4726 14.0449 22.2754 13.6972 21.9278C13.3496 21.5801 13.1524 21.1099 13.1481 20.6183C13.1438 20.1266 13.3328 19.653 13.6744 19.2994L16.0988 16.875H9.375C8.87772 16.875 8.40081 16.6775 8.04918 16.3258C7.69754 15.9742 7.5 15.4973 7.5 15C7.5 14.5027 7.69754 14.0258 8.04918 13.6742C8.40081 13.3225 8.87772 13.125 9.375 13.125H16.0988L13.6744 10.7006Z" fill="white"/>
</svg>
