<svg width="71" height="42" viewBox="0 0 71 42" fill="none" xmlns="http://www.w3.org/2000/svg">
<rect width="71" height="42" rx="21" fill="white"/>
<path d="M10.8906 27V13.1818H16.8551C17.8807 13.1818 18.7781 13.3842 19.5472 13.7891C20.3164 14.1939 20.9147 14.7629 21.342 15.4961C21.7693 16.2293 21.983 17.0862 21.983 18.0668C21.983 19.0563 21.7625 19.9132 21.3217 20.6374C20.8854 21.3616 20.2714 21.9194 19.4798 22.3107C18.6926 22.7021 17.7727 22.8977 16.7202 22.8977H13.1577V19.983H15.9645C16.4053 19.983 16.7809 19.9065 17.0913 19.7536C17.4061 19.5961 17.6468 19.3735 17.8132 19.0856C17.9841 18.7977 18.0696 18.4581 18.0696 18.0668C18.0696 17.6709 17.9841 17.3336 17.8132 17.0547C17.6468 16.7713 17.4061 16.5554 17.0913 16.407C16.7809 16.254 16.4053 16.1776 15.9645 16.1776H14.642V27H10.8906ZM23.3594 27V13.1818H27.1108V23.9773H32.6974V27H23.3594ZM37.8034 27H33.7551L38.3161 13.1818H43.444L48.0051 27H43.9568L40.934 16.9872H40.8261L37.8034 27ZM37.0477 21.5483H44.6585V24.3551H37.0477V21.5483ZM47.359 13.1818H51.5423L54.2411 18.7955H54.3491L57.0479 13.1818H61.2312L56.1573 22.6548V27H52.4329V22.6548L47.359 13.1818Z" fill="black"/>
</svg>
