<svg width="30" height="30" viewBox="0 0 30 30" fill="none" xmlns="http://www.w3.org/2000/svg">
<path fill-rule="evenodd" clip-rule="evenodd" d="M15 30C18.9782 30 22.7936 28.4196 25.6066 25.6066C28.4196 22.7936 30 18.9782 30 15C30 11.0218 28.4196 7.20644 25.6066 4.3934C22.7936 1.58035 18.9782 0 15 0C11.0218 0 7.20644 1.58035 4.3934 4.3934C1.58035 7.20644 0 11.0218 0 15C0 18.9782 1.58035 22.7936 4.3934 25.6066C7.20644 28.4196 11.0218 30 15 30ZM16.3256 10.7006C16.6672 10.347 16.8562 9.87337 16.8519 9.38175C16.8476 8.89013 16.6504 8.41986 16.3028 8.07222C15.9551 7.72458 15.4849 7.52738 14.9933 7.52311C14.5016 7.51884 14.028 7.70783 13.6744 8.04938L8.04938 13.6744C7.69787 14.026 7.5004 14.5028 7.5004 15C7.5004 15.4972 7.69787 15.974 8.04938 16.3256L13.6744 21.9506C14.028 22.2922 14.5016 22.4812 14.9933 22.4769C15.4849 22.4726 15.9551 22.2754 16.3028 21.9278C16.6504 21.5801 16.8476 21.1099 16.8519 20.6183C16.8562 20.1266 16.6672 19.653 16.3256 19.2994L13.9012 16.875H20.625C21.1223 16.875 21.5992 16.6775 21.9508 16.3258C22.3025 15.9742 22.5 15.4973 22.5 15C22.5 14.5027 22.3025 14.0258 21.9508 13.6742C21.5992 13.3225 21.1223 13.125 20.625 13.125H13.9012L16.3256 10.7006Z" fill="white"/>
</svg>
