<svg width="83" height="42" viewBox="0 0 83 42" fill="none" xmlns="http://www.w3.org/2000/svg">
<rect width="80.726" height="42" rx="21" fill="white"/>
<path d="M12.2605 27V13.1818H18.225C19.2505 13.1818 20.1479 13.3685 20.9171 13.7418C21.6863 14.1152 22.2845 14.6527 22.7118 15.3544C23.1392 16.0561 23.3528 16.8973 23.3528 17.8778C23.3528 18.8674 23.1324 19.7018 22.6916 20.381C22.2553 21.0603 21.6413 21.573 20.8496 21.9194C20.0625 22.2657 19.1426 22.4389 18.09 22.4389H14.5275V19.5241H17.3344C17.7752 19.5241 18.1508 19.4702 18.4611 19.3622C18.776 19.2498 19.0166 19.0721 19.1831 18.8292C19.354 18.5863 19.4395 18.2692 19.4395 17.8778C19.4395 17.482 19.354 17.1604 19.1831 16.913C19.0166 16.6611 18.776 16.4767 18.4611 16.3597C18.1508 16.2383 17.7752 16.1776 17.3344 16.1776H16.0119V27H12.2605ZM20.3571 20.6577L23.8116 27H19.7363L16.3628 20.6577H20.3571ZM24.9519 27V13.1818H34.9107V16.2045H28.7033V18.5795H34.3979V21.6023H28.7033V23.9773H34.8837V27H24.9519ZM44.2201 17.5C44.1841 17.0502 44.0154 16.6993 43.7141 16.4474C43.4172 16.1955 42.9651 16.0696 42.3579 16.0696C41.971 16.0696 41.6539 16.1168 41.4065 16.2113C41.1636 16.3013 40.9837 16.425 40.8668 16.5824C40.7498 16.7398 40.6891 16.9197 40.6846 17.1222C40.6756 17.2886 40.7048 17.4393 40.7723 17.5742C40.8443 17.7047 40.9567 17.8239 41.1097 17.9318C41.2626 18.0353 41.4583 18.1297 41.6967 18.2152C41.9351 18.3007 42.2184 18.3771 42.5468 18.4446L43.6803 18.6875C44.445 18.8494 45.0995 19.0631 45.6437 19.3285C46.188 19.5939 46.6333 19.9065 46.9797 20.2663C47.326 20.6217 47.5802 21.022 47.7421 21.4673C47.9085 21.9126 47.994 22.3984 47.9985 22.9247C47.994 23.8333 47.7669 24.6025 47.317 25.2322C46.8672 25.862 46.224 26.341 45.3874 26.6694C44.5552 26.9978 43.5544 27.1619 42.3849 27.1619C41.1839 27.1619 40.1358 26.9843 39.2407 26.6289C38.3501 26.2736 37.6574 25.727 37.1626 24.9893C36.6723 24.2472 36.4249 23.2981 36.4204 22.142H39.9829C40.0054 22.5649 40.1111 22.9202 40.3 23.2081C40.4889 23.496 40.7543 23.7141 41.0962 23.8626C41.4425 24.011 41.8541 24.0852 42.3309 24.0852C42.7312 24.0852 43.0663 24.0357 43.3362 23.9368C43.6061 23.8378 43.8108 23.7006 43.9502 23.5252C44.0897 23.3498 44.1616 23.1496 44.1661 22.9247C44.1616 22.7133 44.0919 22.5289 43.957 22.3714C43.8265 22.2095 43.6106 22.0656 43.3092 21.9396C43.0079 21.8092 42.6008 21.6877 42.088 21.5753L40.7116 21.2784C39.4881 21.013 38.5232 20.57 37.817 19.9492C37.1153 19.324 36.7667 18.4716 36.7712 17.392C36.7667 16.5149 37.0006 15.748 37.4729 15.0913C37.9497 14.43 38.6087 13.915 39.4499 13.5462C40.2955 13.1773 41.2648 12.9929 42.3579 12.9929C43.4734 12.9929 44.4383 13.1796 45.2524 13.5529C46.0666 13.9263 46.6941 14.4525 47.1349 15.1317C47.5802 15.8065 47.8051 16.5959 47.8096 17.5H44.2201ZM49.4255 27V13.1818H59.3843V16.2045H53.177V18.5795H58.8716V21.6023H53.177V23.9773H59.3573V27H49.4255ZM60.867 16.2045V13.1818H72.877V16.2045H68.7207V27H65.0233V16.2045H60.867Z" fill="black"/>
</svg>
